# xmcd
#
# Track frame offsets: 
#        150
#        17358
#        32157
#        55140
#        70098
#        105138
#        124796
#        140987
#        160376
#        177857
#
# Disc length: 2755 seconds
#
# Revision: 0
# Processed by: cddbd v1.5.2PL0 Copyright (c) Steve Scherf et al.
# Submitted via: ExactAudioCopy v0.95a4
#
DISCID=7f0ac10a
DTITLE=Jessy Martens and Jan Fischer's Blues Support - That's why I'm cr
DTITLE=ying
DYEAR=2007
DGENRE=Blues
TTITLE0=Never make your move too soon
TTITLE1=Mess around
TTITLE2=Love me like a man
TTITLE3=Good morning Blues
TTITLE4=Thar's why I'm crying
TTITLE5=I'm no sophisticated mama
TTITLE6=Trying to make a living
TTITLE7=Hard times
TTITLE8=Saved
TTITLE9=Summertime
EXTD=
EXTT0=
EXTT1=
EXTT2=
EXTT3=
EXTT4=
EXTT5=
EXTT6=
EXTT7=
EXTT8=
EXTT9=
PLAYORDER=
